<mxfile host="app.diagrams.net" modified="2024-02-06T06:15:25.980Z" agent="Mozilla/5.0 (Macintosh; Intel Mac OS X 10_15_7) AppleWebKit/605.1.15 (KHTML, like Gecko) Version/17.2.1 Safari/605.1.15" etag="-0F31qSLEl5RHx1a_AqW" version="23.1.1" type="github">
  <diagram name="Page-1" id="QWSEDfuOCVo4MYgl05UA">
    <mxGraphModel dx="984" dy="666" grid="1" gridSize="10" guides="1" tooltips="1" connect="1" arrows="1" fold="1" page="1" pageScale="1" pageWidth="827" pageHeight="1169" math="1" shadow="0">
      <root>
        <mxCell id="0" />
        <mxCell id="1" parent="0" />
        <mxCell id="B6bSA64JoKd48ShI27MK-1" value="" style="ellipse;whiteSpace=wrap;html=1;" vertex="1" parent="1">
          <mxGeometry x="40" y="40" width="150" height="150" as="geometry" />
        </mxCell>
        <mxCell id="B6bSA64JoKd48ShI27MK-2" value="" style="ellipse;whiteSpace=wrap;html=1;" vertex="1" parent="1">
          <mxGeometry x="310" y="40" width="150" height="150" as="geometry" />
        </mxCell>
        <mxCell id="B6bSA64JoKd48ShI27MK-23" style="edgeStyle=orthogonalEdgeStyle;rounded=0;orthogonalLoop=1;jettySize=auto;html=1;" edge="1" parent="1" source="B6bSA64JoKd48ShI27MK-3" target="B6bSA64JoKd48ShI27MK-21">
          <mxGeometry relative="1" as="geometry" />
        </mxCell>
        <mxCell id="B6bSA64JoKd48ShI27MK-3" value="" style="ellipse;whiteSpace=wrap;html=1;" vertex="1" parent="1">
          <mxGeometry x="580" y="40" width="150" height="150" as="geometry" />
        </mxCell>
        <mxCell id="B6bSA64JoKd48ShI27MK-4" value="" style="ellipse;whiteSpace=wrap;html=1;" vertex="1" parent="1">
          <mxGeometry x="30" y="270" width="150" height="150" as="geometry" />
        </mxCell>
        <mxCell id="B6bSA64JoKd48ShI27MK-5" value="" style="ellipse;whiteSpace=wrap;html=1;" vertex="1" parent="1">
          <mxGeometry x="310" y="270" width="150" height="150" as="geometry" />
        </mxCell>
        <mxCell id="B6bSA64JoKd48ShI27MK-6" value="" style="endArrow=classic;html=1;rounded=0;exitX=1;exitY=0.5;exitDx=0;exitDy=0;" edge="1" parent="1" source="B6bSA64JoKd48ShI27MK-1" target="B6bSA64JoKd48ShI27MK-2">
          <mxGeometry width="50" height="50" relative="1" as="geometry">
            <mxPoint x="390" y="370" as="sourcePoint" />
            <mxPoint x="440" y="320" as="targetPoint" />
          </mxGeometry>
        </mxCell>
        <mxCell id="B6bSA64JoKd48ShI27MK-7" value="" style="endArrow=classic;html=1;rounded=0;exitX=1.007;exitY=0.4;exitDx=0;exitDy=0;exitPerimeter=0;entryX=0;entryY=1;entryDx=0;entryDy=0;" edge="1" parent="1" source="B6bSA64JoKd48ShI27MK-4" target="B6bSA64JoKd48ShI27MK-2">
          <mxGeometry width="50" height="50" relative="1" as="geometry">
            <mxPoint x="200" y="125" as="sourcePoint" />
            <mxPoint x="320" y="125" as="targetPoint" />
          </mxGeometry>
        </mxCell>
        <mxCell id="B6bSA64JoKd48ShI27MK-8" value="" style="endArrow=classic;html=1;rounded=0;exitX=1;exitY=0.5;exitDx=0;exitDy=0;entryX=0;entryY=1;entryDx=0;entryDy=0;" edge="1" parent="1" source="B6bSA64JoKd48ShI27MK-5" target="B6bSA64JoKd48ShI27MK-3">
          <mxGeometry width="50" height="50" relative="1" as="geometry">
            <mxPoint x="520" y="340" as="sourcePoint" />
            <mxPoint x="671" y="178" as="targetPoint" />
          </mxGeometry>
        </mxCell>
        <mxCell id="B6bSA64JoKd48ShI27MK-9" value="" style="endArrow=classic;html=1;rounded=0;exitX=1;exitY=0.5;exitDx=0;exitDy=0;" edge="1" parent="1">
          <mxGeometry width="50" height="50" relative="1" as="geometry">
            <mxPoint x="460" y="114.5" as="sourcePoint" />
            <mxPoint x="580" y="114.5" as="targetPoint" />
          </mxGeometry>
        </mxCell>
        <mxCell id="B6bSA64JoKd48ShI27MK-10" value="&lt;font style=&quot;font-size: 24px;&quot;&gt;$$x$$&lt;br style=&quot;font-size: 24px;&quot;&gt;&lt;/font&gt;" style="text;html=1;strokeColor=none;fillColor=none;align=center;verticalAlign=middle;whiteSpace=wrap;rounded=0;fontSize=24;" vertex="1" parent="1">
          <mxGeometry x="85" y="110" width="60" height="30" as="geometry" />
        </mxCell>
        <mxCell id="B6bSA64JoKd48ShI27MK-11" value="$$B_1$$" style="text;html=1;strokeColor=none;fillColor=none;align=center;verticalAlign=middle;whiteSpace=wrap;rounded=0;fontSize=17;fontColor=#FF1100;" vertex="1" parent="1">
          <mxGeometry x="75" y="330" width="60" height="30" as="geometry" />
        </mxCell>
        <mxCell id="B6bSA64JoKd48ShI27MK-14" value="$$(\frac{1}{1+e^{-(x\cdot W_1+B_1)}})$$" style="text;html=1;strokeColor=none;fillColor=none;align=center;verticalAlign=middle;whiteSpace=wrap;rounded=0;fontSize=16;" vertex="1" parent="1">
          <mxGeometry x="355" y="100" width="60" height="30" as="geometry" />
        </mxCell>
        <mxCell id="B6bSA64JoKd48ShI27MK-15" value="&lt;font size=&quot;5&quot;&gt;$$W_1$$&lt;br&gt;&lt;/font&gt;" style="text;html=1;strokeColor=none;fillColor=none;align=center;verticalAlign=middle;whiteSpace=wrap;rounded=0;fontColor=#FF4640;" vertex="1" parent="1">
          <mxGeometry x="355" y="70" width="60" height="30" as="geometry" />
        </mxCell>
        <mxCell id="B6bSA64JoKd48ShI27MK-16" value="$$B_2$$" style="text;html=1;strokeColor=none;fillColor=none;align=center;verticalAlign=middle;whiteSpace=wrap;rounded=0;fontSize=17;fontColor=#FF0D05;" vertex="1" parent="1">
          <mxGeometry x="355" y="340" width="60" height="30" as="geometry" />
        </mxCell>
        <mxCell id="B6bSA64JoKd48ShI27MK-17" value="&lt;font size=&quot;5&quot;&gt;$$W_2$$&lt;br&gt;&lt;/font&gt;" style="text;html=1;strokeColor=none;fillColor=none;align=center;verticalAlign=middle;whiteSpace=wrap;rounded=0;fontColor=#FF4E21;" vertex="1" parent="1">
          <mxGeometry x="625" y="70" width="60" height="30" as="geometry" />
        </mxCell>
        <mxCell id="B6bSA64JoKd48ShI27MK-20" value="$$W_2\cdot a_1+B_2$$" style="text;html=1;strokeColor=none;fillColor=none;align=center;verticalAlign=middle;whiteSpace=wrap;rounded=0;fontSize=16;" vertex="1" parent="1">
          <mxGeometry x="625" y="110" width="60" height="30" as="geometry" />
        </mxCell>
        <mxCell id="B6bSA64JoKd48ShI27MK-21" value="" style="ellipse;whiteSpace=wrap;html=1;" vertex="1" parent="1">
          <mxGeometry x="850" y="15" width="200" height="200" as="geometry" />
        </mxCell>
        <mxCell id="B6bSA64JoKd48ShI27MK-22" value="$$(a_1)$$" style="text;html=1;strokeColor=none;fillColor=none;align=center;verticalAlign=middle;whiteSpace=wrap;rounded=0;fontSize=16;" vertex="1" parent="1">
          <mxGeometry x="450" y="80" width="60" height="30" as="geometry" />
        </mxCell>
        <mxCell id="B6bSA64JoKd48ShI27MK-24" value="$$(f_{w,b}(x))$$" style="text;html=1;strokeColor=none;fillColor=none;align=center;verticalAlign=middle;whiteSpace=wrap;rounded=0;fontSize=16;" vertex="1" parent="1">
          <mxGeometry x="760" y="80" width="60" height="30" as="geometry" />
        </mxCell>
        <mxCell id="B6bSA64JoKd48ShI27MK-25" value="$$\frac{1}{2m} \sum\limits_{i = 0}^{m-1} (f_{w,b}(x^{(i)}) - y^{(i)})^2$$" style="text;html=1;strokeColor=none;fillColor=none;align=center;verticalAlign=middle;whiteSpace=wrap;rounded=0;fontSize=15;" vertex="1" parent="1">
          <mxGeometry x="920" y="100" width="60" height="30" as="geometry" />
        </mxCell>
      </root>
    </mxGraphModel>
  </diagram>
</mxfile>
